<svg id="visual" viewBox="0 0 1000 6000" width="1000" height="6000" xmlns="http://www.w3.org/2000/svg" xmlns:xlink="http://www.w3.org/1999/xlink" version="1.1"><g><g transform="translate(517 5944)"><path d="M0 -238.1L206.2 -119.1L206.2 119.1L0 238.1L-206.2 119.1L-206.2 -119.1Z" stroke="#1e589a" fill="none" stroke-width="3"></path></g><g transform="translate(142 2177)"><path d="M0 -225L194.9 -112.5L194.9 112.5L0 225L-194.9 112.5L-194.9 -112.5Z" stroke="#1e589a" fill="none" stroke-width="3"></path></g><g transform="translate(154 3136)"><path d="M0 -183L158.5 -91.5L158.5 91.5L0 183L-158.5 91.5L-158.5 -91.5Z" stroke="#1e589a" fill="none" stroke-width="3"></path></g><g transform="translate(726 5216)"><path d="M0 -96L83.1 -48L83.1 48L0 96L-83.1 48L-83.1 -48Z" stroke="#1e589a" fill="none" stroke-width="3"></path></g><g transform="translate(190 3922)"><path d="M0 -114L98.7 -57L98.7 57L0 114L-98.7 57L-98.7 -57Z" stroke="#1e589a" fill="none" stroke-width="3"></path></g><g transform="translate(795 1475)"><path d="M0 -162L140.3 -81L140.3 81L0 162L-140.3 81L-140.3 -81Z" stroke="#1e589a" fill="none" stroke-width="3"></path></g><g transform="translate(148 741)"><path d="M0 -111L96.1 -55.5L96.1 55.5L0 111L-96.1 55.5L-96.1 -55.5Z" stroke="#1e589a" fill="none" stroke-width="3"></path></g><g transform="translate(977 2578)"><path d="M0 -180L155.9 -90L155.9 90L0 180L-155.9 90L-155.9 -90Z" stroke="#1e589a" fill="none" stroke-width="3"></path></g><g transform="translate(701 4508)"><path d="M0 -111L96.1 -55.5L96.1 55.5L0 111L-96.1 55.5L-96.1 -55.5Z" stroke="#1e589a" fill="none" stroke-width="3"></path></g><g transform="translate(48 1644)"><path d="M0 -157L136 -78.5L136 78.5L0 157L-136 78.5L-136 -78.5Z" stroke="#1e589a" fill="none" stroke-width="3"></path></g><g transform="translate(252 4912)"><path d="M0 -182L157.6 -91L157.6 91L0 182L-157.6 91L-157.6 -91Z" stroke="#1e589a" fill="none" stroke-width="3"></path></g><g transform="translate(7 96)"><path d="M0 -175L151.6 -87.5L151.6 87.5L0 175L-151.6 87.5L-151.6 -87.5Z" stroke="#1e589a" fill="none" stroke-width="3"></path></g><g transform="translate(613 245)"><path d="M0 -140L121.2 -70L121.2 70L0 140L-121.2 70L-121.2 -70Z" stroke="#1e589a" fill="none" stroke-width="3"></path></g><g transform="translate(970 3684)"><path d="M0 -102L88.3 -51L88.3 51L0 102L-88.3 51L-88.3 -51Z" stroke="#1e589a" fill="none" stroke-width="3"></path></g><g transform="translate(592 946)"><path d="M0 -115L99.6 -57.5L99.6 57.5L0 115L-99.6 57.5L-99.6 -57.5Z" stroke="#1e589a" fill="none" stroke-width="3"></path></g><g transform="translate(958 1963)"><path d="M0 -169L146.4 -84.5L146.4 84.5L0 169L-146.4 84.5L-146.4 -84.5Z" stroke="#1e589a" fill="none" stroke-width="3"></path></g><g transform="translate(113 5470)"><path d="M0 -190L164.5 -95L164.5 95L0 190L-164.5 95L-164.5 -95Z" stroke="#1e589a" fill="none" stroke-width="3"></path></g><g transform="translate(79 4418)"><path d="M0 -157L136 -78.5L136 78.5L0 157L-136 78.5L-136 -78.5Z" stroke="#1e589a" fill="none" stroke-width="3"></path></g><g transform="translate(297 2646)"><path d="M0 -104L90.1 -52L90.1 52L0 104L-90.1 52L-90.1 -52Z" stroke="#1e589a" fill="none" stroke-width="3"></path></g><g transform="translate(732 3065)"><path d="M0 -157L136 -78.5L136 78.5L0 157L-136 78.5L-136 -78.5Z" stroke="#1e589a" fill="none" stroke-width="3"></path></g><g transform="translate(982 5689)"><path d="M0 -99L85.7 -49.5L85.7 49.5L0 99L-85.7 49.5L-85.7 -49.5Z" stroke="#1e589a" fill="none" stroke-width="3"></path></g><g transform="translate(983 570)"><path d="M0 -122L105.7 -61L105.7 61L0 122L-105.7 61L-105.7 -61Z" stroke="#1e589a" fill="none" stroke-width="3"></path></g><g transform="translate(489 3529)"><path d="M0 -108L93.5 -54L93.5 54L0 108L-93.5 54L-93.5 -54Z" stroke="#1e589a" fill="none" stroke-width="3"></path></g></g></svg>