<svg id="visual" viewBox="0 0 900 600" width="900" height="600" xmlns="http://www.w3.org/2000/svg" xmlns:xlink="http://www.w3.org/1999/xlink" version="1.1"><g><g transform="translate(880 498)"><path d="M0 -114.9L99.5 -57.5L99.5 57.5L0 114.9L-99.5 57.5L-99.5 -57.5Z" fill="none" stroke="#1e589a" stroke-width="3"></path></g><g transform="translate(680 137)"><path d="M0 -87L75.3 -43.5L75.3 43.5L0 87L-75.3 43.5L-75.3 -43.5Z" fill="none" stroke="#1e589a" stroke-width="3"></path></g><g transform="translate(29 415)"><path d="M0 -71L61.5 -35.5L61.5 35.5L0 71L-61.5 35.5L-61.5 -35.5Z" fill="none" stroke="#1e589a" stroke-width="3"></path></g><g transform="translate(454 324)"><path d="M0 -100L86.6 -50L86.6 50L0 100L-86.6 50L-86.6 -50Z" stroke="#1e589a" fill="none" stroke-width="3"></path></g><g transform="translate(225 39)"><path d="M0 -101L87.5 -50.5L87.5 50.5L0 101L-87.5 50.5L-87.5 -50.5Z" stroke="#1e589a" fill="none" stroke-width="3"></path></g><g transform="translate(595 545)"><path d="M0 -75L65 -37.5L65 37.5L0 75L-65 37.5L-65 -37.5Z" stroke="#1e589a" fill="none" stroke-width="3"></path></g></g></svg>